<svg xmlns="http://www.w3.org/2000/svg" viewBox="48 59.6 117 126">
<!-- SVG created with Arrow, by QuiverAI (https://quiver.ai) -->
  <path d="m164 180-30.5-82.4 7.2-18.8c0.8-3.4-5.2-5.8-6.6-2.1l-37.2 94.8-2.9-7.4 32.5-83.1-6.4-17.9c-0.5-1.1-1.4-1.8-2.5-2.1-1.5-0.3-3.2 0.4-3.8 2.1l-30.5 74.1-27.6-71.9c-0.5-1.5-1.8-2.2-3.3-2.2-2 0-3.5 1.8-3.2 3.7l30.3 80.1-7.4 18.9c-0.8 2.3 1.3 4.6 3.7 4.1 1.1-0.1 2.3-0.8 2.7-2.1l37.8-94.4 2.9 7.5-32.8 82.9 7.2 18.4c0.5 1.1 1.3 1.6 2.5 2 1.5 0.2 3.1-0.5 3.6-2.1l30-74.6 27.6 70.5c0.9 2.5 6.2 3.2 6.9-0.8 0.2-0.3 0-0.9-0.2-1.2z" fill="#CCB590"/>
</svg>